<svg width="716" height="716" viewBox="0 0 716 716" fill="none" xmlns="http://www.w3.org/2000/svg">
<g clip-path="url(#clip0_4185_7046)">
<g opacity="0.4">
<path d="M507.481 290.901L611.73 283.727C618.841 283.235 621.41 292.975 614.966 296.055L520.708 341.201C515.467 343.759 515.926 351.349 521.472 353.212L620.489 386.472C627.281 388.72 625.935 398.715 618.771 399.098L514.432 404.729C508.625 405.047 506.135 412.289 510.517 416.11L589.313 484.738C594.724 489.447 589.637 498.156 582.898 495.748L484.375 461.056C478.856 459.113 473.825 464.814 476.384 470.057L522.92 563.634C526.053 570.053 518.089 576.125 512.784 571.363L435.012 501.575C430.657 497.674 423.811 501.015 424.208 506.848L431.382 611.095C431.873 618.207 422.133 620.777 419.054 614.332L373.908 520.076C371.349 514.833 363.759 515.293 361.896 520.839L328.636 619.855C326.388 626.648 316.393 625.301 316.01 618.138L310.38 513.798C310.063 507.993 302.82 505.501 298.998 509.883L230.371 588.678C225.661 594.09 216.953 589.003 219.36 582.265L254.053 483.741C255.995 478.223 250.293 473.191 245.052 475.75L151.474 522.287C145.056 525.42 138.983 517.456 143.746 512.152L213.534 434.378C217.436 430.024 214.094 423.177 208.261 423.574L104.012 430.749C96.9007 431.24 94.3329 421.5 100.776 418.421L195.034 373.275C200.275 370.717 199.815 363.125 194.271 361.263L95.2532 328.003C88.4611 325.755 89.8072 315.76 96.971 315.376L201.31 309.747C207.116 309.429 209.608 302.186 205.226 298.365L126.43 229.738C121.018 225.028 126.105 216.32 132.844 218.726L231.367 253.419C236.885 255.362 241.917 249.661 239.358 244.419L192.822 150.841C189.689 144.423 197.653 138.35 202.958 143.112L280.73 212.901C285.085 216.802 291.931 213.46 291.534 207.627L284.28 103.352C283.79 96.2401 293.529 93.6719 296.608 100.116L341.754 194.373C344.313 199.615 351.904 199.154 353.766 193.61L387.08 94.5662C389.327 87.7738 399.322 89.1203 399.706 96.2839L405.337 200.623C405.654 206.43 412.895 208.92 416.718 204.538L485.345 125.743C490.055 120.331 498.763 125.419 496.356 132.156L461.664 230.681C459.721 236.199 465.422 241.23 470.664 238.672L564.242 192.135C570.66 189.003 576.733 196.966 571.97 202.27L502.182 280.044C498.281 284.399 501.622 291.244 507.455 290.848L507.481 290.901Z" stroke="#E8E8E8" stroke-width="0.668651" stroke-miterlimit="10"/>
<path d="M458.581 312.978L528.879 308.14C533.675 307.81 535.407 314.378 531.062 316.454L467.5 346.898C463.965 348.623 464.277 353.742 468.015 354.998L534.786 377.426C539.367 378.941 538.459 385.682 533.628 385.941L463.267 389.737C459.353 389.952 457.672 394.836 460.628 397.413L513.763 443.69C517.412 446.866 513.981 452.739 509.438 451.116L442.999 427.721C439.278 426.411 435.885 430.256 437.61 433.791L468.991 496.893C471.104 501.221 465.735 505.316 462.158 502.106L409.711 455.044C406.776 452.413 402.158 454.666 402.426 458.6L407.265 528.899C407.596 533.694 401.028 535.426 398.952 531.08L368.508 467.52C366.783 463.986 361.664 464.295 360.408 468.035L337.979 534.805C336.464 539.386 329.724 538.478 329.465 533.647L325.668 463.287C325.455 459.372 320.571 457.692 317.993 460.646L271.715 513.781C268.54 517.431 262.667 514 264.289 509.456L287.685 443.017C288.994 439.298 285.15 435.903 281.615 437.629L218.512 469.012C214.184 471.124 210.09 465.753 213.3 462.176L260.361 409.73C262.992 406.794 260.739 402.178 256.805 402.445L186.507 407.283C181.712 407.615 179.979 401.047 184.324 398.97L247.886 368.526C251.42 366.801 251.11 361.683 247.371 360.426L180.599 337.998C176.02 336.482 176.928 329.742 181.759 329.483L252.119 325.687C256.034 325.473 257.714 320.589 254.758 318.012L201.624 271.734C197.975 268.558 201.405 262.686 205.949 264.309L272.387 287.703C276.109 289.014 279.501 285.169 277.776 281.634L246.395 218.531C244.282 214.203 249.652 210.108 253.229 213.319L305.674 260.38C308.61 263.011 313.228 260.757 312.96 256.824L308.068 186.507C307.737 181.712 314.304 179.98 316.381 184.325L346.825 247.886C348.55 251.421 353.669 251.112 354.925 247.372L377.389 180.583C378.905 176.003 385.646 176.91 385.904 181.741L389.701 252.101C389.914 256.017 394.798 257.697 397.376 254.742L443.653 201.606C446.83 197.958 452.702 201.388 451.079 205.931L427.684 272.37C426.375 276.091 430.219 279.484 433.753 277.759L496.857 246.377C501.185 244.265 505.28 249.635 502.068 253.212L455.007 305.657C452.377 308.594 454.63 313.21 458.563 312.942L458.581 312.978Z" stroke="#E8E8E8" stroke-width="0.668651" stroke-miterlimit="10"/>
<path d="M408.128 335.326L443.277 332.908C445.675 332.742 446.541 336.026 444.368 337.065L412.588 352.286C410.82 353.149 410.975 355.708 412.845 356.337L446.23 367.55C448.52 368.309 448.067 371.678 445.651 371.808L410.472 373.706C408.513 373.813 407.674 376.255 409.151 377.543L435.719 400.682C437.543 402.27 435.828 405.207 433.557 404.396L400.337 392.698C398.477 392.043 396.78 393.966 397.642 395.732L413.333 427.285C414.389 429.448 411.704 431.495 409.916 429.89L383.694 406.359C382.225 405.045 379.917 406.171 380.051 408.137L382.47 443.287C382.635 445.684 379.351 446.55 378.313 444.378L363.091 412.597C362.229 410.83 359.669 410.986 359.041 412.855L347.828 446.24C347.069 448.53 343.698 448.076 343.57 445.661L341.671 410.48C341.564 408.524 339.122 407.683 337.834 409.161L314.695 435.728C313.106 437.552 310.171 435.838 310.982 433.566L322.68 400.347C323.334 398.486 321.412 396.79 319.645 397.653L288.093 413.343C285.93 414.399 283.881 411.714 285.488 409.926L309.018 383.702C310.333 382.235 309.206 379.926 307.24 380.06L272.091 382.48C269.692 382.644 268.828 379.361 271 378.323L302.78 363.101C304.548 362.238 304.392 359.679 302.523 359.051L269.137 347.836C266.848 347.079 267.301 343.709 269.717 343.579L304.896 341.681C306.854 341.574 307.694 339.133 306.216 337.844L279.649 314.704C277.824 313.117 279.54 310.18 281.812 310.992L315.031 322.689C316.891 323.344 318.588 321.422 317.725 319.654L302.035 288.103C300.978 285.939 303.664 283.891 305.452 285.498L331.675 309.027C333.143 310.343 335.451 309.217 335.318 307.249L332.872 272.092C332.705 269.694 335.989 268.827 337.028 271L352.25 302.781C353.113 304.548 355.672 304.393 356.299 302.523L367.533 269.129C368.29 266.838 371.66 267.293 371.79 269.707L373.688 304.888C373.795 306.846 376.236 307.686 377.526 306.208L400.664 279.641C402.252 277.816 405.188 279.532 404.377 281.803L392.679 315.023C392.025 316.883 393.947 318.58 395.715 317.717L427.266 302.027C429.43 300.97 431.477 303.654 429.872 305.444L406.341 331.666C405.025 333.134 406.152 335.443 408.119 335.308L408.128 335.326Z" stroke="#E8E8E8" stroke-width="0.668651" stroke-miterlimit="10"/>
</g>
</g>
<defs>
<clipPath id="clip0_4185_7046">
<rect width="534.921" height="534.921" fill="white" transform="translate(480.713) rotate(63.9828)"/>
</clipPath>
</defs>
</svg>
