<svg width="177" height="185" viewBox="0 0 177 185" fill="none" xmlns="http://www.w3.org/2000/svg">
<path d="M44.1874 86.7715L39.0073 49.9135L19.6084 52.6399L20.9716 62.3393C21.8349 68.4823 24.3915 73.7708 28.6414 78.2047C32.8913 82.6387 38.0733 85.4943 44.1874 86.7715ZM141.182 73.1398C146.706 70.2203 150.9 66.0438 153.763 60.6102C156.626 55.1765 157.626 49.3915 156.764 43.2549L155.401 33.5555L136.002 36.2818L141.182 73.1398ZM94.1632 160.854L89.9374 130.786C81.7663 130.121 74.2241 127.762 67.3111 123.709C60.398 119.656 54.9603 114.113 50.998 107.08C38.6692 107.329 27.783 103.462 18.3393 95.4783C8.89561 87.4947 3.30674 77.3572 1.57269 65.0657L0.209516 55.3662C-0.540228 50.0315 0.719268 45.1991 3.988 40.869C7.25674 36.5389 11.5548 33.9962 16.8821 33.2409L36.281 30.5146C35.5313 25.1799 36.7908 20.3475 40.0595 16.0174C43.3282 11.6873 47.6263 9.14464 52.9536 8.38934L111.15 0.210321C116.485 -0.539423 121.321 0.719619 125.657 3.98744C129.994 7.25527 132.533 11.5538 133.276 16.8829L152.675 14.1566C158.009 13.4068 162.845 14.6659 167.181 17.9337C171.518 21.2015 174.057 25.5 174.8 30.8291L176.163 40.5286C177.89 52.8146 175.312 64.0999 168.429 74.3846C161.546 84.6693 152.147 91.3874 140.233 94.5389C138.368 102.384 134.672 109.211 129.145 115.019C123.618 120.827 117.015 125.174 109.336 128.06L113.562 158.128L142.661 154.038C145.409 153.652 147.845 154.259 149.969 155.86C152.093 157.461 153.344 159.632 153.723 162.375C154.102 165.117 153.495 167.554 151.902 169.683C150.308 171.813 148.137 173.064 145.387 173.437L67.7912 184.343C65.043 184.729 62.6101 184.121 60.4926 182.52C58.375 180.918 57.1204 178.747 56.7286 176.006C56.3368 173.266 56.9444 170.833 58.5514 168.708C60.1585 166.583 62.3296 165.328 65.0648 164.944L94.1632 160.854Z" fill="#FFB211"/>
</svg>
