<svg width="402" height="402" viewBox="0 0 402 402" fill="none" xmlns="http://www.w3.org/2000/svg">
<g clip-path="url(#clip0_4185_7067)">
<g opacity="0.4">
<path d="M284.611 163.146L343.076 159.122C347.064 158.846 348.505 164.309 344.891 166.036L292.029 191.355C289.089 192.79 289.347 197.047 292.457 198.092L347.989 216.745C351.798 218.006 351.043 223.611 347.025 223.826L288.509 226.984C285.252 227.162 283.856 231.224 286.313 233.367L330.504 271.856C333.539 274.496 330.686 279.381 326.907 278.03L271.652 258.574C268.557 257.484 265.735 260.682 267.17 263.622L293.269 316.103C295.026 319.703 290.56 323.108 287.585 320.438L243.967 281.298C241.525 279.11 237.686 280.984 237.908 284.256L241.932 342.721C242.207 346.709 236.745 348.15 235.018 344.536L209.698 291.674C208.263 288.734 204.007 288.992 202.962 292.102L184.309 347.633C183.048 351.443 177.442 350.688 177.228 346.671L174.07 288.153C173.893 284.898 169.83 283.5 167.687 285.958L129.199 330.148C126.557 333.184 121.674 330.33 123.023 326.552L142.48 271.296C143.569 268.202 140.372 265.38 137.433 266.815L84.9509 292.914C81.3518 294.671 77.9456 290.205 80.6165 287.23L119.756 243.612C121.944 241.17 120.07 237.33 116.799 237.553L58.333 241.577C54.3445 241.852 52.9045 236.39 56.5181 234.663L109.381 209.344C112.32 207.909 112.062 203.652 108.953 202.607L53.4206 183.954C49.6113 182.693 50.3663 177.088 54.384 176.872L112.901 173.715C116.157 173.537 117.554 169.475 115.097 167.332L70.9054 128.844C67.8702 126.202 70.7233 121.318 74.5025 122.668L129.758 142.125C132.852 143.214 135.674 140.017 134.239 137.077L108.14 84.5957C106.383 80.9962 110.849 77.5907 113.824 80.2612L157.442 119.401C159.884 121.589 163.723 119.715 163.501 116.443L159.433 57.9625C159.158 53.9741 164.619 52.5337 166.347 56.1477L191.666 109.01C193.101 111.95 197.358 111.692 198.402 108.582L217.086 53.0353C218.346 49.2259 223.952 49.981 224.167 53.9987L227.325 112.515C227.503 115.772 231.564 117.169 233.708 114.711L272.196 70.5201C274.837 67.4852 279.721 70.3384 278.371 74.1171L258.915 129.372C257.825 132.467 261.023 135.289 263.962 133.854L316.444 107.755C320.043 105.998 323.449 110.464 320.778 113.439L281.639 157.057C279.451 159.499 281.325 163.338 284.596 163.116L284.611 163.146Z" stroke="#E8E8E8" stroke-width="0.668651" stroke-miterlimit="10"/>
<path d="M257.186 175.528L296.611 172.814C299.301 172.629 300.273 176.313 297.835 177.477L262.188 194.551C260.206 195.518 260.38 198.389 262.477 199.093L299.924 211.672C302.493 212.522 301.984 216.302 299.274 216.447L259.814 218.577C257.619 218.697 256.676 221.436 258.334 222.881L288.134 248.835C290.18 250.616 288.256 253.91 285.708 252.999L248.447 239.879C246.36 239.144 244.457 241.301 245.425 243.283L263.024 278.673C264.209 281.1 261.198 283.397 259.192 281.596L229.778 255.202C228.132 253.727 225.542 254.991 225.693 257.197L228.406 296.623C228.592 299.312 224.908 300.283 223.744 297.846L206.67 262.199C205.703 260.217 202.832 260.391 202.127 262.488L189.549 299.935C188.699 302.504 184.919 301.995 184.773 299.286L182.644 259.826C182.525 257.63 179.785 256.688 178.34 258.344L152.386 288.144C150.605 290.191 147.312 288.267 148.221 285.719L161.342 248.458C162.076 246.372 159.92 244.468 157.938 245.435L122.548 263.036C120.121 264.221 117.824 261.209 119.625 259.202L146.018 229.789C147.494 228.143 146.23 225.554 144.024 225.703L104.598 228.417C101.909 228.603 100.938 224.919 103.374 223.755L139.022 206.681C141.004 205.713 140.83 202.843 138.733 202.138L101.285 189.56C98.7171 188.709 99.2265 184.929 101.935 184.784L141.396 182.655C143.591 182.535 144.534 179.796 142.876 178.351L113.076 152.397C111.03 150.615 112.954 147.322 115.502 148.232L152.763 161.353C154.85 162.088 156.753 159.931 155.785 157.949L138.185 122.559C137.001 120.131 140.012 117.835 142.018 119.636L171.431 146.029C173.078 147.504 175.667 146.24 175.517 144.035L172.774 104.599C172.588 101.909 176.271 100.938 177.436 103.375L194.51 139.022C195.477 141.004 198.348 140.831 199.053 138.734L211.651 101.276C212.501 98.7075 216.282 99.2166 216.427 101.926L218.556 141.386C218.675 143.582 221.415 144.524 222.86 142.867L248.814 113.067C250.595 111.021 253.889 112.944 252.979 115.492L239.858 152.753C239.124 154.84 241.279 156.743 243.262 155.776L278.652 138.176C281.079 136.991 283.376 140.003 281.575 142.009L255.182 171.422C253.706 173.069 254.97 175.658 257.176 175.508L257.186 175.528Z" stroke="#E8E8E8" stroke-width="0.668651" stroke-miterlimit="10"/>
<path d="M228.891 188.062L248.603 186.705C249.948 186.612 250.434 188.454 249.215 189.036L231.392 197.573C230.4 198.057 230.487 199.492 231.536 199.845L250.26 206.134C251.544 206.559 251.289 208.449 249.935 208.521L230.205 209.586C229.107 209.646 228.636 211.016 229.464 211.738L244.365 224.715C245.388 225.605 244.426 227.253 243.152 226.798L224.521 220.237C223.478 219.87 222.526 220.948 223.01 221.939L231.81 239.635C232.402 240.848 230.896 241.996 229.893 241.096L215.187 227.899C214.363 227.162 213.069 227.793 213.144 228.896L214.501 248.609C214.593 249.953 212.752 250.439 212.17 249.221L203.632 231.397C203.149 230.406 201.713 230.494 201.361 231.542L195.072 250.266C194.647 251.55 192.756 251.295 192.685 249.94L191.619 230.21C191.559 229.113 190.19 228.641 189.467 229.471L176.49 244.37C175.6 245.393 173.953 244.431 174.408 243.157L180.969 224.527C181.335 223.483 180.258 222.532 179.266 223.016L161.571 231.816C160.358 232.408 159.209 230.902 160.11 229.899L173.307 215.192C174.044 214.369 173.412 213.074 172.31 213.149L152.597 214.507C151.252 214.599 150.767 212.758 151.985 212.176L169.808 203.639C170.8 203.155 170.712 201.719 169.664 201.367L150.94 195.078C149.656 194.653 149.91 192.763 151.265 192.69L170.995 191.626C172.093 191.565 172.564 190.196 171.735 189.473L156.836 176.496C155.812 175.606 156.774 173.959 158.049 174.414L176.679 180.974C177.722 181.342 178.674 180.264 178.19 179.272L169.39 161.577C168.798 160.363 170.304 159.215 171.307 160.116L186.013 173.312C186.837 174.05 188.131 173.419 188.056 172.315L186.684 152.598C186.591 151.253 188.433 150.767 189.015 151.986L197.552 169.809C198.036 170.8 199.472 170.713 199.824 169.664L206.123 150.936C206.548 149.651 208.438 149.906 208.511 151.26L209.575 170.991C209.636 172.089 211.005 172.56 211.728 171.731L224.704 156.831C225.595 155.808 227.242 156.77 226.787 158.044L220.227 176.675C219.859 177.718 220.937 178.67 221.929 178.186L239.624 169.386C240.838 168.794 241.985 170.299 241.085 171.303L227.889 186.009C227.151 186.832 227.782 188.127 228.886 188.051L228.891 188.062Z" stroke="#E8E8E8" stroke-width="0.668651" stroke-miterlimit="10"/>
</g>
</g>
<defs>
<clipPath id="clip0_4185_7067">
<rect width="300" height="300" fill="white" transform="translate(269.599) rotate(63.9828)"/>
</clipPath>
</defs>
</svg>
