<svg width="608" height="608" viewBox="0 0 608 608" fill="none" xmlns="http://www.w3.org/2000/svg">
<path d="M159.139 316.014L52.6055 315.856C52.6055 315.856 57.9072 308.961 63.7562 308.11C63.7562 308.11 75.1623 274.317 94.1562 274.062C111.825 273.867 118.877 294.904 118.877 294.904C118.877 294.904 127.085 285.48 134.904 289.809C142.723 294.138 147.137 306.517 147.137 306.517C147.137 306.517 155.953 311.296 159.139 316.014Z" fill="#EBEBEB"/>
<path d="M420.738 150.054L555.459 150.26C555.459 150.26 555.459 141.651 536.915 139.937C536.915 139.937 520.025 102.241 494.148 107.299C477.975 110.424 469.707 132.543 469.707 132.543C469.707 132.543 457.547 115.118 447.819 118.474C438.091 121.83 432.266 140.362 432.266 140.362C432.266 140.362 422.21 145.19 420.738 150.054Z" fill="#EBEBEB"/>
<path d="M124.617 435.12L259.338 435.327C259.338 435.327 259.338 426.718 240.794 425.003C240.794 425.003 223.904 387.307 198.027 392.366C181.915 395.491 173.707 417.598 173.707 417.598C173.707 417.598 161.547 400.172 151.819 403.528C142.091 406.885 136.266 425.416 136.266 425.416C136.266 425.416 126.149 430.256 124.617 435.12Z" fill="#EBEBEB"/>
<path d="M191.98 110.205L283.582 110.351C283.582 110.351 274.948 102.289 271.106 102.277C267.263 102.265 256.1 75.2455 241.764 76.3763C227.427 77.5072 219.803 97.6077 219.803 97.6077C219.803 97.6077 202.389 92.1235 191.98 110.205Z" fill="#EBEBEB"/>
<path d="M404.516 312.048L482.85 312.17C482.85 312.17 478.959 307.087 474.667 306.455C474.667 306.455 466.361 281.576 452.377 281.369C439.378 281.186 434.137 296.642 434.137 296.642C434.137 296.642 428.13 289.698 422.366 292.86C416.603 296.022 413.344 305.093 413.344 305.093C413.344 305.093 406.863 308.559 404.516 312.048Z" fill="#EBEBEB"/>
<path d="M202.018 362.816C193.956 369.006 185.821 375.098 177.698 381.166L153.171 399.26L128.45 417.086L116.047 425.939L103.559 434.682L115.719 425.453L127.879 416.333L152.405 398.238L177.102 380.375C185.395 374.526 193.664 368.605 202.018 362.816Z" fill="#263238"/>
<path d="M161.452 488.102C155.518 492.735 149.511 497.27 143.492 501.794C137.473 506.317 131.332 510.743 125.337 515.17C119.342 519.596 113.153 524.095 107.012 528.436L97.7824 534.966C94.6938 537.094 91.6173 539.271 88.4922 541.387C91.4471 539.052 94.4627 536.778 97.4419 534.48L106.465 527.743C112.545 523.22 118.625 518.793 124.62 514.306C130.614 509.819 136.78 505.466 142.945 501.101C149.11 496.735 155.226 492.333 161.452 488.102Z" fill="#263238"/>
<path d="M406.768 385.301C400.834 389.946 394.827 394.482 388.808 399.005C382.789 403.529 376.709 407.955 370.653 412.442C364.597 416.929 358.493 421.282 352.34 425.648L343.123 432.165C340.022 434.306 336.945 436.482 333.82 438.586C336.787 436.263 339.791 433.989 342.77 431.691L351.781 424.894C357.861 420.37 363.941 415.932 369.936 411.457C375.93 406.982 382.096 402.617 388.261 398.251C394.426 393.886 400.542 389.545 406.768 385.301Z" fill="#263238"/>
<path d="M509.628 230.236C503.693 234.881 497.686 239.417 491.667 243.928C485.648 248.44 479.507 252.89 473.512 257.365C467.517 261.84 461.352 266.218 455.187 270.571L445.97 277.101C442.869 279.241 439.805 281.406 436.68 283.521C439.635 281.187 442.638 278.925 445.617 276.615L454.64 269.817C460.659 265.306 466.739 260.867 472.795 256.441C478.851 252.015 484.955 247.589 491.108 243.223C497.261 238.858 503.426 234.468 509.628 230.236Z" fill="#263238"/>
<path d="M149.729 224.789C143.795 229.434 137.788 233.97 131.769 238.481C125.75 242.993 119.609 247.443 113.614 251.857C107.619 256.271 101.454 260.71 95.3009 265.063L86.0837 271.593C82.9829 273.733 79.9064 275.898 76.7812 278.013C79.7483 275.679 82.7518 273.417 85.731 271.106L94.7416 264.309C100.822 259.798 106.902 255.359 112.896 250.933C118.891 246.507 125.056 242.081 131.222 237.727C137.387 233.374 143.491 229.021 149.729 224.789Z" fill="#263238"/>
<path d="M495.4 224.375C491.837 227.281 488.201 230.09 484.553 232.887C480.905 235.684 477.184 238.371 473.512 241.131C469.839 243.892 466.07 246.506 462.3 249.145L456.634 253.073C454.724 254.289 452.84 255.651 450.906 256.891C452.669 255.419 454.493 254.021 456.293 252.586L461.753 248.379C465.401 245.594 469.049 242.895 472.794 240.147C476.54 237.398 480.236 234.76 484.006 232.133C487.775 229.507 491.545 226.88 495.4 224.375Z" fill="#263238"/>
<path d="M144.306 213.918C140.755 216.824 137.107 219.633 133.459 222.43C129.811 225.227 126.163 227.926 122.418 230.674C118.673 233.423 114.976 236.061 111.206 238.688L105.552 242.616C103.631 243.892 101.746 245.193 99.8125 246.434C101.588 244.975 103.461 243.564 105.199 242.129L110.659 237.922C114.307 235.137 117.955 232.425 121.7 229.677C125.446 226.929 129.142 224.29 132.912 221.664C136.682 219.037 140.451 216.447 144.306 213.918Z" fill="#263238"/>
<path d="M201.409 341.465C195.475 346.098 189.468 350.633 183.448 355.157C177.429 359.681 171.288 364.107 165.294 368.594C159.299 373.081 153.134 377.434 146.981 381.8L137.763 388.329C134.663 390.47 131.586 392.634 128.461 394.75C131.428 392.415 134.431 390.141 137.411 387.843L146.421 381.046C152.501 376.522 158.581 372.096 164.576 367.609C170.571 363.122 176.736 358.769 182.901 354.403C189.066 350.038 195.183 345.697 201.409 341.465Z" fill="#263238"/>
<path d="M351.062 404.174L331.667 418.741L312.186 433.212L273.116 461.982L233.888 490.534L214.213 504.725L194.453 518.818L213.86 504.251L233.329 489.78L272.399 461.01L311.639 432.458L331.314 418.267L351.062 404.174Z" fill="#263238"/>
<path d="M412.084 172.445C402.66 181.359 392.847 193.64 379.969 197.507C369.864 200.511 359.054 197.884 349.776 193.507C329.396 183.864 309.648 162.778 315.728 138.458C318.16 128.73 330.405 116.874 341.373 120.036C347.003 121.677 351.381 125.617 356.148 128.84C359.029 130.926 362.342 132.338 365.843 132.969C369.344 133.601 372.941 133.436 376.37 132.488C390.755 128.84 397.249 121.459 408.959 113.032C410.059 112.115 411.34 111.438 412.718 111.047C414.096 110.655 415.541 110.557 416.96 110.758C420.261 111.028 423.427 112.193 426.116 114.126C428.817 115.422 431.153 117.369 432.914 119.793C436.562 125.046 436.124 133.509 436.562 139.626C437 145.742 435.577 150.083 431.09 154.461C424.779 160.565 418.407 166.451 412.084 172.445Z" fill="#263238"/>
<path d="M408.513 177.65C416.624 168.919 424.564 160.055 432.553 151.227C432.553 151.227 432.553 151.093 432.48 151.142C425.695 158.219 418.813 165.186 412.112 172.349C405.412 179.511 399.247 187.038 392.109 193.458C376.046 207.868 354.888 196.802 343.7 182.222C343.19 181.566 342.192 182.454 342.728 183.098C352.954 195.598 369.723 206.579 386.175 198.797C395.186 194.614 401.874 184.776 408.513 177.65Z" fill="#263238"/>
<path d="M410.456 113.141C410.626 112.995 410.395 112.739 410.213 112.885C400.874 120.181 390.671 129.666 378.439 131.308C372.41 132.109 366.28 131.067 360.855 128.316C356.563 126.14 353.352 122.662 349.619 119.731C335.027 108.277 316.264 124.218 317.651 140.513C317.651 140.853 318.271 140.817 318.259 140.513C317.784 128.608 326.005 117.409 338.469 116.728C348.476 116.156 354.277 126.663 362.898 130.104C380.895 137.315 397.639 124.644 410.456 113.141Z" fill="#263238"/>
<path d="M399.025 226.059C397.457 234.738 394.273 243.045 389.638 250.549C369.44 283.077 327.561 336.265 318.016 351.1C300.651 378.156 218.79 432.949 218.79 432.949L193.254 393.271C193.254 393.271 271.576 323.57 272.574 321.758C278.252 311.471 323.354 245.478 323.475 243.362C324.57 221.718 343.308 203.125 343.308 203.125L399.025 226.059Z" fill="#263238"/>
<path d="M399.012 226.059C397.611 233.944 394.864 241.529 390.889 248.482C364.404 250.221 333.64 243.144 323.656 240.614C326.137 220.149 343.307 203.125 343.307 203.125L399.012 226.059Z" fill="#455A64"/>
<path d="M180.887 491.05C178.881 489.043 153.928 417.591 154.281 414.138C154.281 413.542 163.206 409.809 177.774 404.069C178.783 403.668 250.929 339.889 250.929 339.889L285.305 387.811L195.041 449.608C195.041 449.608 190.348 480.008 189.545 483.741C188.742 487.475 182.894 493.056 180.887 491.05Z" fill="#263238"/>
<path opacity="0.3" d="M285.304 387.811L272.889 396.323L239.242 350.261L250.928 339.938L285.304 387.811Z" fill="white"/>
<path opacity="0.1" d="M285.318 387.811L242.965 416.788L243.22 346.71C247.963 342.515 250.942 339.9 250.942 339.9L285.318 387.811Z" fill="black"/>
<path opacity="0.1" d="M325.286 249.053C321.995 255.068 318.562 260.998 314.987 266.843C311.448 272.704 307.788 278.492 304.103 284.268C300.419 290.044 296.625 295.735 292.746 301.377C288.867 307.019 284.939 312.637 280.695 318.049L285.863 309.16C287.614 306.205 289.365 303.262 291.153 300.344C294.704 294.495 298.376 288.719 302.097 282.955C305.818 277.191 309.575 271.476 313.43 265.821C317.285 260.167 321.2 254.561 325.286 249.053Z" fill="white"/>
<path d="M300.372 376.271L294.109 329.589C294.109 329.589 368.103 307.64 370 303.432C370.754 301.791 322.783 270.26 323.257 234.947C323.5 217.315 343.029 203.137 343.029 203.137L387.535 221.742C387.535 221.742 381.175 237.258 383.133 239.872C387.377 245.563 443.203 289.728 440.066 317.465C436.807 346.211 300.372 376.271 300.372 376.271Z" fill="#263238"/>
<path d="M383.134 239.848C362.778 232.893 339.93 241.064 325.289 248.36C323.918 244.035 323.233 239.522 323.258 234.984C323.502 217.352 343.031 203.174 343.031 203.174L387.548 221.779C387.548 221.779 381.189 237.173 383.134 239.848Z" fill="#455A64"/>
<path d="M367.496 227.068C370.701 228.289 373.662 230.072 376.239 232.334C377.545 233.433 378.784 234.611 379.948 235.86C381.11 237.106 382.175 238.44 383.134 239.849C380.519 237.672 378.039 235.41 375.461 233.258C374.184 232.176 372.883 231.13 371.558 230.096C370.232 229.063 368.907 228.029 367.496 227.068Z" fill="#263238"/>
<path d="M375.594 229.537C376.587 229.907 377.503 230.46 378.293 231.167C379.096 231.858 379.815 232.641 380.433 233.501C381.664 235.226 382.453 237.226 382.732 239.326C382.136 238.45 381.637 237.563 381.09 236.712C380.543 235.86 380.008 235.021 379.436 234.207C378.27 232.559 376.986 230.998 375.594 229.537Z" fill="#263238"/>
<path d="M370.059 303.408C371.708 304.009 373.28 304.805 374.74 305.779C376.209 306.736 377.611 307.792 378.935 308.941C380.257 310.08 381.508 311.298 382.681 312.589C383.851 313.89 384.924 315.276 385.891 316.736C383.24 314.437 380.747 312.078 378.145 309.829C376.856 308.698 375.531 307.603 374.193 306.521C372.855 305.439 371.445 304.405 370.059 303.408Z" fill="#37474F"/>
<path d="M325.285 248.336C325.965 250.64 326.869 252.872 327.985 255C328.508 256.082 329.079 257.14 329.651 258.198C330.222 259.256 330.867 260.277 331.487 261.286C332.107 262.296 332.764 263.317 333.432 264.314L335.463 267.281C336.91 269.202 338.309 271.148 339.853 272.996C342.808 276.79 346.079 280.292 349.338 283.843L354.384 288.999C356.099 290.689 357.85 292.343 359.552 294.045C357.704 292.501 355.904 290.896 354.068 289.327L348.827 284.33C345.404 280.905 342.157 277.31 339.099 273.556C336.049 269.8 333.285 265.821 330.83 261.651C328.319 257.519 326.449 253.029 325.285 248.336V248.336Z" fill="#37474F"/>
<path opacity="0.1" d="M340.721 207.988C337.69 211.571 335.207 215.583 333.352 219.893C331.483 224.124 330.379 228.653 330.093 233.269C329.867 237.849 330.583 242.426 332.196 246.718C333.02 248.858 334.008 250.932 335.151 252.919C336.282 254.95 337.51 256.932 338.799 258.866C341.389 262.748 344.199 266.479 347.214 270.041C350.205 273.689 353.391 277.081 356.65 280.462C359.909 283.842 363.314 287.089 366.779 290.251C370.245 293.412 373.808 296.525 377.444 299.529C369.574 294.266 362.174 288.335 355.325 281.799C348.381 275.323 342.166 268.105 336.793 260.276C335.472 258.298 334.231 256.272 333.072 254.196C331.881 252.09 330.864 249.89 330.032 247.618C328.389 243.02 327.762 238.12 328.196 233.257C329.248 223.617 333.686 214.663 340.721 207.988V207.988Z" fill="white"/>
<path d="M250.809 415.524C249.691 412.909 253.132 337.311 254.761 334.234C255.029 333.699 264.647 333.541 280.297 333.638C281.392 333.638 352.503 310.072 352.503 310.072L377.358 359.369L279.397 382.339C279.397 382.339 263.735 408.787 261.595 411.973C259.455 415.159 251.928 418.126 250.809 415.524Z" fill="#263238"/>
<path opacity="0.3" d="M377.357 359.369L361.805 363.017L339.09 314.523L352.502 310.133L377.357 359.369Z" fill="white"/>
<path d="M402.892 173.418C415.891 201.252 433.402 227.408 442.716 228.661C455.253 230.339 483.464 220.465 497.631 213.996C501.789 212.087 486.322 179.948 481.823 182.015C476.436 184.447 448.808 197.604 448.212 197.677C446.996 197.835 420.244 174.719 413.97 169.04C403.561 159.555 397.104 161.063 402.892 173.418Z" fill="#AD6359"/>
<path d="M518.413 203.186C512.941 208.476 497.51 214.896 493.193 215.018C488.877 215.139 477.069 189.263 479.1 185.335C481.131 181.408 500.988 165.04 508.722 164.335C516.455 163.63 524.055 197.702 518.413 203.186Z" fill="#AD6359"/>
<path d="M497.047 167.861C496.014 171.752 501.194 170.743 501.194 170.743C501.194 170.743 494.08 174.001 494.567 178.428C495.053 182.854 501.267 181.261 501.717 181.164C501.34 181.334 494.883 184.495 495.831 188.897C496.78 193.299 502.823 190.952 503.213 190.794C502.909 191.062 498.981 194.795 500.452 197.981C503.006 203.441 513.318 194.187 518.182 194.649C518.182 194.649 518.327 202.979 518.376 203.222C518.376 203.222 528.372 194.613 528.639 188.022C528.691 187.063 528.415 186.115 527.855 185.335C527.296 184.554 526.487 183.988 525.563 183.729C525.563 183.729 529.089 181.297 528.457 177.82C528.128 176.032 524.967 174.974 524.967 174.974C525.737 174.376 526.327 173.577 526.672 172.665C527.018 171.754 527.105 170.764 526.925 169.806C526.329 167.374 523.277 166.681 523.277 166.681C523.277 166.681 524.991 163.483 523.568 161.173C520.699 156.515 499.261 159.47 497.047 167.861Z" fill="#AD6359"/>
<path d="M522.802 166.499C522.818 166.499 522.834 166.492 522.845 166.481C522.857 166.47 522.863 166.454 522.863 166.438C522.863 166.422 522.857 166.407 522.845 166.395C522.834 166.384 522.818 166.377 522.802 166.377C515.234 165.579 507.601 167.097 500.914 170.731C500.695 170.852 500.805 171.241 501.06 171.156C508.044 168.559 515.368 166.99 522.802 166.499V166.499Z" fill="#263238"/>
<path d="M525.063 174.877C525.148 174.877 525.136 174.731 525.063 174.719C516.707 173.914 508.339 176.126 501.473 180.957C501.23 181.127 501.205 181.528 501.473 181.346C506.252 178.282 518.083 175.242 525.063 174.877Z" fill="#263238"/>
<path d="M502.847 191.282C509.608 186.624 517.184 184.606 525.258 183.645C525.355 183.645 525.331 183.487 525.258 183.475C521.172 182.867 516.089 184.01 512.21 185.238C508.59 186.311 505.312 188.31 502.701 191.039C502.604 191.148 502.713 191.379 502.847 191.282Z" fill="#263238"/>
<path d="M501.194 170.707C499.904 171.461 498.683 172.328 497.546 173.297C496.391 174.198 495.497 175.39 494.955 176.751C494.745 177.388 494.776 178.08 495.041 178.696C495.311 179.308 495.729 179.842 496.257 180.253C496.831 180.612 497.474 180.845 498.145 180.937C498.816 181.029 499.498 180.978 500.148 180.788L503.358 179.997L500.622 181.858C499.395 182.671 498.31 183.682 497.412 184.849C496.967 185.364 496.636 185.967 496.439 186.619C496.242 187.27 496.184 187.956 496.269 188.631C496.346 189.268 496.641 189.858 497.104 190.302C497.568 190.745 498.171 191.014 498.81 191.063C500.231 191.136 501.646 190.843 502.92 190.212L506.495 188.534L503.65 191.197C502.86 191.943 502.166 192.785 501.583 193.702C500.996 194.549 500.678 195.553 500.671 196.584C500.685 197.047 500.827 197.497 501.083 197.884C501.339 198.27 501.697 198.578 502.118 198.772C503.122 199.065 504.19 199.065 505.194 198.772C507.382 198.167 509.521 197.395 511.59 196.462C512.648 196.036 513.706 195.599 514.801 195.246C515.868 194.791 517.021 194.571 518.181 194.601C517.041 194.701 515.93 195.019 514.91 195.538C513.876 196 512.855 196.523 511.821 197.033C509.779 198.129 507.637 199.028 505.425 199.721C504.245 200.108 502.978 200.146 501.777 199.83C501.133 199.585 500.575 199.156 500.173 198.596C499.771 198.036 499.542 197.37 499.515 196.681C499.486 195.387 499.851 194.115 500.561 193.033C501.189 192.001 501.945 191.054 502.811 190.212L503.553 191.282C502.051 192.05 500.374 192.41 498.689 192.328C497.773 192.247 496.914 191.852 496.257 191.209C495.612 190.542 495.188 189.693 495.041 188.777C494.928 187.921 494.999 187.052 495.248 186.225C495.498 185.399 495.92 184.636 496.488 183.986C497.492 182.717 498.7 181.624 500.063 180.751L500.537 181.821C499.722 182.024 498.872 182.047 498.047 181.889C497.222 181.732 496.441 181.398 495.758 180.909C495.111 180.376 494.612 179.685 494.311 178.903C494.016 178.119 494.016 177.255 494.311 176.471C494.97 175.039 496.014 173.818 497.327 172.944C498.527 172.054 499.824 171.304 501.194 170.707Z" fill="#263238"/>
<path d="M481.934 181.955C481.934 181.955 494.471 152.188 503.7 162.791C506.448 165.941 513.951 182.15 510.728 183.731C506.558 185.749 502.216 179.572 500.028 175.219C500.028 175.219 497.182 185.944 489.084 186.163C487.621 186.182 486.181 185.8 484.921 185.058C483.66 184.316 482.627 183.243 481.934 181.955V181.955Z" fill="#AD6359"/>
<path d="M502.933 161.963C504.155 163.067 505.208 164.346 506.058 165.757C506.966 167.147 507.779 168.597 508.49 170.098C509.93 173.078 511.106 176.178 512.004 179.364C512.24 180.211 512.354 181.087 512.345 181.966C512.336 182.473 512.216 182.971 511.992 183.425C511.869 183.671 511.709 183.896 511.518 184.094C511.322 184.29 511.091 184.447 510.837 184.556C509.94 184.978 508.922 185.064 507.967 184.799C507.092 184.539 506.269 184.127 505.535 183.583C504.175 182.536 503.003 181.266 502.07 179.826C501.15 178.447 500.337 177 499.638 175.497L500.695 175.375C500.33 176.586 499.85 177.759 499.261 178.877C498.683 179.994 497.995 181.049 497.206 182.027C496.407 182.999 495.468 183.847 494.421 184.544C493.382 185.232 492.223 185.719 491.004 185.979C492.153 185.572 493.225 184.976 494.178 184.216C495.103 183.454 495.922 182.571 496.61 181.589C497.304 180.611 497.902 179.569 498.397 178.476C498.904 177.393 499.311 176.265 499.613 175.108L499.954 173.673L500.671 174.986C501.425 176.403 502.266 177.771 503.188 179.084C504.028 180.359 505.062 181.496 506.253 182.452C507.469 183.304 509.001 183.875 510.132 183.304C511.262 182.732 510.983 181.103 510.642 179.656C510.27 178.088 509.816 176.542 509.28 175.023C508.758 173.478 508.222 171.946 507.614 170.438C506.503 167.388 504.923 164.528 502.933 161.963Z" fill="#263238"/>
<path d="M462.013 190.649L473.176 226.144C473.176 226.144 447.798 231.92 440.161 228.199C432.525 224.478 412.801 198.176 404.241 178.574C395.68 158.972 402.246 157.294 418.468 171.752C434.689 186.211 447.652 196.534 448.236 196.364C448.819 196.194 462.013 190.649 462.013 190.649Z" fill="#384C6D"/>
<path d="M456.493 195.063C456.493 194.954 456.274 195.002 456.299 195.063C458.326 205.436 460.92 215.69 464.069 225.779C464.069 225.889 464.288 225.84 464.264 225.779C462.236 215.406 459.642 205.152 456.493 195.063Z" fill="#263238"/>
<path opacity="0.1" d="M427.89 216.245C419.451 205.909 409.65 190.916 404.238 178.549C397.295 162.741 400.286 158.558 410.318 165.234L427.89 216.245Z" fill="black"/>
<path d="M403.148 212.354L399.026 226.059L384.008 231.762L343.309 203.125C343.309 203.125 365.549 164.213 389.821 157.087C401.981 153.512 410.225 159.288 412.39 168.165C412.925 170.415 417.436 191.962 414.153 201.398C413.204 203.903 411.731 206.175 409.834 208.065C407.936 209.954 405.656 211.417 403.148 212.354V212.354Z" fill="#384C6D"/>
<path d="M387.46 202.578C389.86 203.672 392.148 204.996 394.294 206.53C395.364 207.321 396.385 208.172 397.394 209.072C397.905 209.51 398.416 209.923 398.939 210.349C399.46 210.793 400.046 211.154 400.678 211.419C400.738 211.419 400.678 211.552 400.678 211.54C400.06 211.389 399.458 211.181 398.878 210.92C398.313 210.639 397.775 210.305 397.273 209.923C396.178 209.145 395.133 208.281 394.038 207.491C391.862 205.874 389.673 204.256 387.375 202.858C387.229 202.785 387.338 202.53 387.46 202.578Z" fill="#263238"/>
<path d="M380.42 203.588C382.544 203.943 384.638 204.459 386.683 205.132C387.701 205.484 388.699 205.89 389.674 206.348L391.06 207.041C391.571 207.297 392.033 207.649 392.544 207.905C392.605 207.905 392.544 208.038 392.544 208.014C392.057 207.807 391.522 207.698 391.024 207.515L389.504 206.98C388.495 206.628 387.473 206.275 386.476 205.91C384.457 205.169 382.439 204.463 380.396 203.807C380.238 203.782 380.311 203.564 380.42 203.588Z" fill="#263238"/>
<path opacity="0.1" d="M401.787 198.286L389.785 180.593L390.819 174.525L413.777 184.436V188.315L401.787 198.286Z" fill="black"/>
<path opacity="0.1" d="M401.787 196.363L391.73 181.54L392.582 176.445L411.843 184.751V187.997L401.787 196.363Z" fill="black"/>
<path d="M386.632 153.086C356.524 149.742 332.192 153.427 325.941 159.629C320.773 164.772 303.92 187.888 296.259 202.286C294.119 206.335 326.136 225.39 327.875 220.769C330.574 213.692 350.018 180.155 350.249 179.595C350.724 178.379 382.388 169.454 390.377 167.435C405.225 163.885 402.598 154.862 386.632 153.086Z" fill="#AD6359"/>
<path d="M301.354 257.846C300.277 257.567 299.311 256.966 298.585 256.122C297.86 255.279 297.409 254.234 297.293 253.128C295.517 253.768 293.573 253.768 291.797 253.128C288.732 251.827 289.426 246.452 289.426 246.452C287.438 246.714 285.418 246.375 283.625 245.479C280.816 243.947 280.743 238.414 280.743 238.414C278.787 237.655 277.169 236.218 276.183 234.365C273.751 229.294 278.336 222.059 281.205 217.414C284.075 212.769 296.563 202.323 298.74 200.086L328.714 218.156C328.714 218.156 321.759 242.609 317.6 247.583C314.049 251.766 305.501 258.697 301.354 257.846Z" fill="#AD6359"/>
<path d="M297.904 253.151C302.695 249.588 306.161 244.809 309.894 240.225C309.979 240.128 309.821 239.994 309.736 240.103C306.088 244.7 301.552 248.506 297.709 252.944C297.6 253.066 297.782 253.248 297.904 253.151Z" fill="#263238"/>
<path d="M289.877 246.487C290.886 245.575 291.77 244.532 292.504 243.386C293.355 242.17 294.194 241.052 295.008 239.872C296.638 237.44 298.219 235.069 299.727 232.576C299.787 232.467 299.641 232.333 299.568 232.454C297.939 234.814 296.273 237.16 294.534 239.459C293.675 240.602 292.799 241.745 291.908 242.888C291.004 243.903 290.217 245.017 289.561 246.207C289.524 246.249 289.505 246.304 289.508 246.36C289.512 246.416 289.537 246.468 289.579 246.505C289.621 246.542 289.676 246.561 289.732 246.558C289.788 246.555 289.84 246.529 289.877 246.487V246.487Z" fill="#263238"/>
<path d="M280.817 238.219C281.717 237.381 282.465 236.393 283.03 235.301C283.76 234.206 284.477 233.112 285.219 232.017C286.678 229.841 288.149 227.652 289.694 225.524C289.767 225.427 289.609 225.293 289.536 225.402C287.955 227.555 286.35 229.695 284.793 231.859C284.027 232.929 283.261 233.987 282.507 235.069C281.729 235.984 281.119 237.03 280.707 238.158C280.683 238.219 280.768 238.255 280.817 238.219Z" fill="#263238"/>
<path d="M337.679 205.096L305.613 184.4C305.613 184.4 319.828 160.262 327.234 156.128C334.639 151.993 364.419 150.145 385.602 152.796C407.174 155.495 407.064 164.117 385.93 169.175C364.796 174.234 350.982 179.426 350.8 179.998C350.617 180.569 337.679 205.096 337.679 205.096Z" fill="#384C6D"/>
<path d="M340.012 201.386C341.897 198.005 350.956 180.179 351.212 180.057C351.735 179.802 359.931 176.92 362.363 176.069C364.43 175.339 366.509 174.646 368.588 173.965C370.303 173.807 372.018 173.649 373.708 173.333C373.734 173.333 373.758 173.322 373.777 173.304C373.795 173.286 373.805 173.261 373.805 173.235C373.805 173.209 373.795 173.185 373.777 173.167C373.758 173.148 373.734 173.138 373.708 173.138C372.523 173.161 371.341 173.262 370.169 173.442C372.455 172.7 374.741 171.971 377.015 171.217C377.015 171.217 377.015 171.132 377.015 171.144C371.92 172.287 350.811 178.89 350.738 179.182C350.665 179.473 339.927 200.595 339.794 201.07C339.757 201.203 339.952 201.483 340.012 201.386Z" fill="#263238"/>
<path d="M338.736 195.828C338.833 195.889 338.931 195.719 338.833 195.658C330.173 189.606 321.189 184.028 311.923 178.95C311.9 178.943 311.875 178.944 311.852 178.952C311.829 178.961 311.809 178.977 311.797 178.998C311.784 179.019 311.779 179.044 311.782 179.069C311.785 179.093 311.796 179.115 311.814 179.133C320.476 185.186 329.464 190.759 338.736 195.828V195.828Z" fill="#263238"/>
<path d="M390.309 153.537C390.309 153.537 395.805 173.443 404.001 175.608C412.197 177.772 415.638 169.309 415.638 169.309C415.638 169.309 406.177 155.361 390.309 153.537Z" fill="#AD6359"/>
<path d="M399.89 157.999C399.72 159.276 402.444 169.077 407.928 170.876C409.716 171.46 413.327 161.842 413.327 161.842L413.765 161.185L419.76 152.101L410.944 140.172L409.63 138.543C409.63 138.543 408.147 141.133 406.347 144.38L406.092 144.842C405.981 145.015 405.88 145.193 405.788 145.377C405.508 145.851 405.229 146.35 404.961 146.848C404.694 147.347 404.548 147.59 404.353 147.991L403.721 149.207C402.251 152.05 400.971 154.987 399.89 157.999V157.999Z" fill="#AD6359"/>
<path d="M406.344 144.38C406.282 147.552 406.914 150.699 408.195 153.602C409.477 156.505 411.376 159.093 413.762 161.185L419.756 152.101L410.94 140.172L409.627 138.543C409.627 138.543 408.144 141.109 406.344 144.38Z" fill="#263238"/>
<path d="M439.193 135.126C440.847 154.168 429.635 157.305 425.525 157.658C421.792 157.986 409.061 158.607 405.437 139.832C401.813 121.057 410.143 114.296 418.63 113.08C427.118 111.864 437.527 116.071 439.193 135.126Z" fill="#AD6359"/>
<path d="M430.046 144.757C429.583 145.587 428.918 146.285 428.112 146.788C427.661 147.041 427.144 147.151 426.629 147.104C425.51 146.983 425.328 145.998 425.413 145.11C425.451 144.645 425.549 144.188 425.705 143.748C427.009 144.534 428.528 144.887 430.046 144.757Z" fill="#263238"/>
<path d="M428.112 146.801C427.661 147.053 427.144 147.163 426.629 147.117C425.51 146.995 425.328 146.01 425.413 145.122C425.986 145.06 426.563 145.192 427.052 145.496C427.541 145.8 427.915 146.259 428.112 146.801V146.801Z" fill="#FF9BBC"/>
<path d="M433.672 132.464C433.246 132.61 432.82 132.683 432.395 132.792C431.959 132.969 431.477 133.003 431.021 132.89C430.885 132.822 430.775 132.712 430.709 132.575C430.643 132.439 430.624 132.284 430.656 132.136C430.756 131.854 430.929 131.604 431.158 131.411C431.386 131.219 431.662 131.091 431.957 131.041C432.545 130.854 433.181 130.888 433.744 131.139C433.868 131.204 433.971 131.303 434.04 131.424C434.109 131.546 434.142 131.685 434.134 131.825C434.126 131.964 434.079 132.099 433.997 132.212C433.915 132.326 433.802 132.413 433.672 132.464V132.464Z" fill="#263238"/>
<path d="M420.49 133.278C420.904 133.13 421.31 132.959 421.706 132.767C422.162 132.648 422.565 132.378 422.849 132.001C422.918 131.867 422.94 131.714 422.912 131.566C422.883 131.418 422.805 131.284 422.691 131.186C422.44 131.022 422.149 130.928 421.85 130.916C421.55 130.903 421.253 130.971 420.988 131.113C420.398 131.333 419.911 131.767 419.627 132.329C419.583 132.453 419.574 132.587 419.601 132.715C419.627 132.844 419.688 132.963 419.776 133.06C419.864 133.158 419.977 133.229 420.103 133.267C420.229 133.305 420.362 133.309 420.49 133.278V133.278Z" fill="#263238"/>
<path d="M423.237 136.926C423.237 136.926 423.139 136.999 423.152 137.047C423.334 138.336 423.334 139.844 422.203 140.404C422.203 140.404 422.203 140.489 422.203 140.477C423.638 140.124 423.565 138.117 423.237 136.926Z" fill="#263238"/>
<path d="M421.935 135.71C419.831 135.783 420.135 139.966 422.08 139.905C424.026 139.844 423.686 135.637 421.935 135.71Z" fill="#263238"/>
<path d="M421.133 135.99C420.792 136.245 420.464 136.695 420.014 136.768C419.564 136.841 419.09 136.44 418.737 136.051H418.664C418.664 136.853 419.077 137.656 419.953 137.717C420.829 137.778 421.254 137.011 421.4 136.197C421.412 136.087 421.266 135.881 421.133 135.99Z" fill="#263238"/>
<path d="M431.224 135.771C431.224 135.771 431.322 135.771 431.322 135.869C431.322 137.182 431.638 138.666 432.842 139.018V139.091C431.383 138.982 431.054 137.012 431.224 135.771Z" fill="#263238"/>
<path d="M432.298 134.335C434.377 134.043 434.803 138.214 432.882 138.494C430.96 138.773 430.547 134.578 432.298 134.335Z" fill="#263238"/>
<path d="M433.192 134.519C433.545 134.702 433.91 135.079 434.311 135.067C434.712 135.054 435.065 134.556 435.308 134.094C435.308 134.094 435.308 134.094 435.381 134.094C435.478 134.896 435.308 135.748 434.554 135.979C433.8 136.21 433.277 135.565 433.01 134.763C432.961 134.677 433.046 134.446 433.192 134.519Z" fill="#263238"/>
<path d="M430.094 142.033C430.094 142.033 430.531 143.955 430.604 144.867C430.604 144.952 430.398 145.013 430.081 145.049C429.314 145.266 428.502 145.267 427.734 145.052C426.966 144.838 426.272 144.416 425.728 143.833C425.655 143.76 425.728 143.651 425.862 143.699C427.094 144.396 428.518 144.677 429.923 144.502C429.923 144.246 429.072 141.243 429.218 141.231C429.933 141.233 430.645 141.332 431.334 141.523C430.543 137.51 429.133 133.655 428.415 129.642C428.415 129.496 428.598 129.436 428.646 129.557C430.283 133.648 431.505 137.893 432.294 142.228C432.416 142.69 430.47 142.155 430.094 142.033Z" fill="#263238"/>
<path d="M407.062 140.72C410.162 140.72 410.369 134.203 410.369 134.203C410.369 134.203 416.632 133.753 418.018 124.584C418.044 127.299 417.275 129.962 415.805 132.245C415.805 132.245 426.749 130.226 430.701 120.644C430.701 120.644 429.205 125.508 427.6 127.296C430.338 126.225 432.631 124.257 434.106 121.714C434.106 121.714 436.44 126.907 438.033 128.256C438.033 128.256 436.112 108.983 418.37 112.448C418.37 112.448 407.232 114.041 403.876 123.222C400.52 132.403 407.062 140.72 407.062 140.72Z" fill="#263238"/>
<path d="M409.215 140.781C409.215 140.781 405.324 134.616 402.551 135.917C399.779 137.218 402.551 146.058 405.616 147.396C406.004 147.595 406.429 147.713 406.865 147.743C407.3 147.773 407.737 147.715 408.15 147.572C408.562 147.429 408.941 147.204 409.265 146.91C409.588 146.616 409.848 146.26 410.03 145.864L409.215 140.781Z" fill="#AD6359"/>
<path d="M403.39 138.482C403.39 138.482 403.33 138.482 403.39 138.568C405.567 139.565 406.649 141.693 407.367 143.869C407.247 143.641 407.079 143.44 406.875 143.282C406.67 143.124 406.434 143.012 406.183 142.953C405.931 142.894 405.67 142.89 405.417 142.941C405.164 142.992 404.925 143.097 404.716 143.249C404.655 143.249 404.716 143.383 404.777 143.371C405.174 143.268 405.594 143.29 405.979 143.434C406.364 143.577 406.695 143.835 406.929 144.173C407.318 144.742 407.64 145.355 407.889 145.997C407.987 146.192 408.352 146.107 408.279 145.876C408.449 142.982 406.43 138.908 403.39 138.482Z" fill="#263238"/>
<path d="M401.568 155.19C400.912 152.941 397.92 157.185 399.574 160.054C402.006 164.286 406.943 169.551 408.086 169.709C409.229 169.867 413.74 165.502 414.324 164.505C414.908 163.508 414.117 161.015 413.716 161.197C413.315 161.38 409.375 166.134 408.852 166.317C408.329 166.499 402.991 160.042 401.568 155.19Z" fill="#455A64"/>
<path d="M237.375 435.351L244.355 436.652L245.911 444.009L247.468 436.652L254.448 435.351L247.504 433.661L245.911 426.705L244.318 433.661L237.375 435.351Z" fill="#EB8A4E"/>
<path d="M290.09 132.154L297.07 133.443L298.638 140.8L300.195 133.443L307.175 132.142L300.219 130.452L298.638 123.496L297.045 130.452L290.09 132.154Z" fill="#EB8A4E"/>
<path d="M490.707 366.55L497.687 367.839L499.243 375.196L500.8 367.839L507.78 366.55L500.836 364.848L499.243 357.904L497.65 364.848L490.707 366.55Z" fill="#EB8A4E"/>
<path d="M425.867 287.316L432.847 288.605L434.403 295.974L435.96 288.605L442.94 287.316L435.996 285.613L434.403 278.67L432.811 285.613L425.867 287.316Z" fill="#EB8A4E"/>
<path d="M135.086 287.316L138.989 288.045L139.853 292.155L140.728 288.045L144.632 287.316L140.74 286.367L139.853 282.488L138.965 286.367L135.086 287.316Z" fill="#EB8A4E"/>
<path d="M507.605 264.466L511.509 265.196L512.384 269.306L513.248 265.196L517.151 264.466L513.272 263.518L512.384 259.639L511.485 263.518L507.605 264.466Z" fill="#EB8A4E"/>
<path d="M239.09 152.085L242.993 152.815L243.869 156.925L244.732 152.815L248.635 152.085L244.756 151.137L243.869 147.258L242.981 151.137L239.09 152.085Z" fill="#EB8A4E"/>
<path d="M157.594 361.297L161.497 362.014L162.373 366.124L163.236 362.014L167.139 361.297L163.248 360.336L162.373 356.457L161.473 360.336L157.594 361.297Z" fill="#EB8A4E"/>
<path d="M90.8477 200.566L94.751 201.284L95.6144 205.394L96.4899 201.284L100.393 200.566L96.5021 199.618L95.6144 195.727L94.7267 199.618L90.8477 200.566Z" fill="#EB8A4E"/>
<path d="M204.348 205.406L208.251 206.124L209.127 210.234L210.002 206.124L213.905 205.394L210.014 204.445L209.127 200.566L208.239 204.445L204.348 205.406Z" fill="#EB8A4E"/>
<path d="M405.965 122.195L409.856 122.924L410.732 127.034L411.607 122.924L415.51 122.195L411.619 121.246L410.732 117.367L409.844 121.246L405.965 122.195Z" fill="#EB8A4E"/>
<path d="M458.566 185.853L462.458 186.583L463.333 190.693L464.209 186.583L468.1 185.853L464.221 184.904L463.333 181.025L462.445 184.904L458.566 185.853Z" fill="#EB8A4E"/>
<path d="M398.754 392.256L402.657 392.973L403.533 397.095L404.396 392.973L408.299 392.256L404.42 391.307L403.533 387.416L402.633 391.307L398.754 392.256Z" fill="#EB8A4E"/>
<path d="M209.482 366.977C209.782 366.977 210.07 367.096 210.282 367.308C210.494 367.52 210.613 367.808 210.613 368.107C210.613 368.407 210.494 368.695 210.282 368.907C210.07 369.119 209.782 369.238 209.482 369.238C209.183 369.238 208.895 369.119 208.683 368.907C208.471 368.695 208.352 368.407 208.352 368.107C208.352 367.808 208.471 367.52 208.683 367.308C208.895 367.096 209.183 366.977 209.482 366.977Z" fill="#EB8A4E"/>
<path d="M212.314 226.176C212.614 226.176 212.902 226.295 213.114 226.507C213.326 226.719 213.445 227.007 213.445 227.307C213.445 227.607 213.326 227.894 213.114 228.106C212.902 228.318 212.614 228.438 212.314 228.438C212.015 228.438 211.727 228.318 211.515 228.106C211.303 227.894 211.184 227.607 211.184 227.307C211.184 227.007 211.303 226.719 211.515 226.507C211.727 226.295 212.015 226.176 212.314 226.176Z" fill="#EB8A4E"/>
<path d="M368.983 143.195C369.261 143.224 369.518 143.355 369.705 143.563C369.893 143.771 369.996 144.04 369.996 144.32C369.996 144.6 369.893 144.87 369.705 145.077C369.518 145.285 369.261 145.416 368.983 145.445C368.704 145.416 368.447 145.285 368.26 145.077C368.072 144.87 367.969 144.6 367.969 144.32C367.969 144.04 368.072 143.771 368.26 143.563C368.447 143.355 368.704 143.224 368.983 143.195Z" fill="#EB8A4E"/>
<path d="M427.791 263.336C428.091 263.336 428.379 263.455 428.591 263.667C428.803 263.879 428.922 264.167 428.922 264.467C428.922 264.767 428.803 265.054 428.591 265.266C428.379 265.479 428.091 265.598 427.791 265.598C427.491 265.598 427.203 265.479 426.991 265.266C426.779 265.054 426.66 264.767 426.66 264.467C426.66 264.167 426.779 263.879 426.991 263.667C427.203 263.455 427.491 263.336 427.791 263.336Z" fill="#EB8A4E"/>
<path d="M468.791 328.318C469.091 328.318 469.379 328.438 469.591 328.65C469.803 328.862 469.922 329.149 469.922 329.449C469.922 329.749 469.803 330.037 469.591 330.249C469.379 330.461 469.091 330.58 468.791 330.58C468.491 330.58 468.203 330.461 467.991 330.249C467.779 330.037 467.66 329.749 467.66 329.449C467.66 329.149 467.779 328.862 467.991 328.65C468.203 328.438 468.491 328.318 468.791 328.318Z" fill="#EB8A4E"/>
<path d="M509.224 315.83C509.437 315.83 509.641 315.915 509.792 316.065C509.942 316.216 510.027 316.42 510.027 316.633C510.027 316.845 509.942 317.05 509.792 317.2C509.641 317.351 509.437 317.435 509.224 317.435C509.012 317.435 508.807 317.351 508.657 317.2C508.506 317.05 508.422 316.845 508.422 316.633C508.422 316.42 508.506 316.216 508.657 316.065C508.807 315.915 509.012 315.83 509.224 315.83Z" fill="#EB8A4E"/>
<path d="M448.412 171.285C448.625 171.285 448.829 171.37 448.979 171.52C449.13 171.671 449.215 171.875 449.215 172.088C449.215 172.301 449.13 172.505 448.979 172.655C448.829 172.806 448.625 172.89 448.412 172.89C448.199 172.89 447.995 172.806 447.844 172.655C447.694 172.505 447.609 172.301 447.609 172.088C447.609 171.875 447.694 171.671 447.844 171.52C447.995 171.37 448.199 171.285 448.412 171.285Z" fill="#EB8A4E"/>
<path d="M327.02 258.156C327.215 258.18 327.393 258.275 327.523 258.421C327.653 258.568 327.724 258.757 327.724 258.953C327.724 259.149 327.653 259.338 327.523 259.484C327.393 259.631 327.215 259.725 327.02 259.749C326.826 259.725 326.647 259.631 326.518 259.484C326.388 259.338 326.316 259.149 326.316 258.953C326.316 258.757 326.388 258.568 326.518 258.421C326.647 258.275 326.826 258.18 327.02 258.156Z" fill="#EB8A4E"/>
<path d="M428.459 416.844C428.672 416.844 428.876 416.928 429.026 417.079C429.177 417.229 429.261 417.433 429.261 417.646C429.261 417.859 429.177 418.063 429.026 418.214C428.876 418.364 428.672 418.449 428.459 418.449C428.246 418.449 428.042 418.364 427.891 418.214C427.741 418.063 427.656 417.859 427.656 417.646C427.656 417.433 427.741 417.229 427.891 417.079C428.042 416.928 428.246 416.844 428.459 416.844Z" fill="#FFC727"/>
<path d="M302.03 401.961C302.577 402.002 303.089 402.248 303.463 402.651C303.836 403.054 304.044 403.582 304.044 404.132C304.044 404.681 303.836 405.209 303.463 405.612C303.089 406.015 302.577 406.261 302.03 406.302C301.482 406.261 300.97 406.015 300.597 405.612C300.223 405.209 300.016 404.681 300.016 404.132C300.016 403.582 300.223 403.054 300.597 402.651C300.97 402.248 301.482 402.002 302.03 401.961Z" fill="#EB8A4E"/>
<path d="M162.36 296.775C162.934 296.775 163.484 297.003 163.89 297.409C164.296 297.815 164.524 298.366 164.524 298.94C164.524 299.514 164.296 300.064 163.89 300.47C163.484 300.876 162.934 301.104 162.36 301.104C161.786 301.104 161.235 300.876 160.829 300.47C160.423 300.064 160.195 299.514 160.195 298.94C160.195 298.366 160.423 297.815 160.829 297.409C161.235 297.003 161.786 296.775 162.36 296.775Z" fill="#EB8A4E"/>
<path d="M275.704 116.857C276.278 116.857 276.828 117.085 277.234 117.491C277.64 117.897 277.868 118.448 277.868 119.022C277.868 119.596 277.64 120.147 277.234 120.552C276.828 120.958 276.278 121.186 275.704 121.186C275.129 121.186 274.579 120.958 274.173 120.552C273.767 120.147 273.539 119.596 273.539 119.022C273.539 118.448 273.767 117.897 274.173 117.491C274.579 117.085 275.129 116.857 275.704 116.857Z" fill="#EB8A4E"/>
<path d="M393.643 111.008C394.191 111.049 394.702 111.295 395.076 111.698C395.449 112.1 395.657 112.629 395.657 113.178C395.657 113.728 395.449 114.256 395.076 114.659C394.702 115.061 394.191 115.308 393.643 115.349C393.095 115.308 392.584 115.061 392.21 114.659C391.836 114.256 391.629 113.728 391.629 113.178C391.629 112.629 391.836 112.1 392.21 111.698C392.584 111.295 393.095 111.049 393.643 111.008Z" fill="#EB8A4E"/>
<path d="M358.588 418.193C359.136 418.234 359.648 418.481 360.021 418.883C360.395 419.286 360.602 419.815 360.602 420.364C360.602 420.913 360.395 421.442 360.021 421.844C359.648 422.247 359.136 422.493 358.588 422.534C358.041 422.493 357.529 422.247 357.155 421.844C356.782 421.442 356.574 420.913 356.574 420.364C356.574 419.815 356.782 419.286 357.155 418.883C357.529 418.481 358.041 418.234 358.588 418.193Z" fill="#EB8A4E"/>
</svg>
