<svg width="42" height="27" viewBox="0 0 42 27" fill="none" xmlns="http://www.w3.org/2000/svg">
<rect width="42" height="20" rx="4" fill="#274B89"/>
<path d="M22.5617 25.0478C21.7611 26.0486 20.2389 26.0486 19.4383 25.0478L15.5995 20.2494C14.5519 18.9399 15.4842 17 17.1613 17L24.8388 17C26.5158 17 27.4481 18.9399 26.4005 20.2494L22.5617 25.0478Z" fill="#274B89"/>
<path d="M22.4941 13.0739C22.1929 13.0739 21.8889 13.0329 21.5823 12.9507C21.2756 12.8631 20.9963 12.7289 20.7444 12.5482C20.6623 12.4989 20.6075 12.436 20.5801 12.3593C20.5528 12.2826 20.5473 12.2087 20.5637 12.1375C20.5801 12.0608 20.613 11.9979 20.6623 11.9486C20.717 11.8993 20.7828 11.8719 20.8594 11.8664C20.9361 11.8555 21.0182 11.8774 21.1058 11.9321C21.3194 12.069 21.5385 12.1731 21.763 12.2443C21.993 12.3155 22.2312 12.3511 22.4776 12.3511C22.7295 12.3511 22.9458 12.3045 23.1266 12.2114C23.3073 12.1183 23.4442 11.9896 23.5373 11.8254C23.6358 11.6556 23.6851 11.4585 23.6851 11.2339C23.6851 10.8889 23.5838 10.6069 23.3812 10.3879C23.1786 10.1688 22.8966 10.0593 22.5351 10.0593C22.327 10.0593 22.1326 10.0976 21.9519 10.1743C21.7712 10.2455 21.5987 10.366 21.4344 10.5357C21.3961 10.5795 21.3441 10.6206 21.2783 10.6589C21.2181 10.6918 21.1497 10.7082 21.073 10.7082C20.958 10.7082 20.8704 10.6781 20.8101 10.6179C20.7499 10.5576 20.7198 10.4755 20.7198 10.3714V7.58679C20.7198 7.46631 20.7526 7.37321 20.8183 7.3075C20.8841 7.24179 20.9772 7.20893 21.0976 7.20893H23.8494C23.9699 7.20893 24.063 7.23905 24.1287 7.29929C24.1944 7.35952 24.2273 7.44714 24.2273 7.56214C24.2273 7.67714 24.1944 7.7675 24.1287 7.83321C24.063 7.89345 23.9699 7.92357 23.8494 7.92357H21.5494V10.01H21.3194C21.4673 9.8019 21.6617 9.64036 21.9026 9.52536C22.1491 9.41036 22.4201 9.35286 22.7158 9.35286C23.0828 9.35286 23.4004 9.42952 23.6687 9.58286C23.937 9.73619 24.1451 9.9525 24.293 10.2318C24.4408 10.5056 24.5148 10.826 24.5148 11.1929C24.5148 11.5652 24.4326 11.8938 24.2683 12.1786C24.1041 12.4579 23.8713 12.6769 23.5701 12.8357C23.2689 12.9945 22.9103 13.0739 22.4941 13.0739ZM25.8505 13.0329C25.6917 13.0329 25.563 12.9836 25.4644 12.885C25.3659 12.7864 25.3166 12.6605 25.3166 12.5071C25.3166 12.3538 25.3659 12.2306 25.4644 12.1375C25.563 12.0389 25.6917 11.9896 25.8505 11.9896C26.0093 11.9896 26.1353 12.0389 26.2284 12.1375C26.3214 12.2306 26.368 12.3538 26.368 12.5071C26.368 12.6605 26.3214 12.7864 26.2284 12.885C26.1353 12.9836 26.0093 13.0329 25.8505 13.0329ZM29.2784 13.0739C28.6048 13.0739 28.09 12.8193 27.7341 12.31C27.3836 11.7952 27.2084 11.0587 27.2084 10.1004C27.2084 9.44869 27.2878 8.90381 27.4466 8.46571C27.6054 8.02762 27.8381 7.69631 28.1448 7.47179C28.4515 7.24726 28.8293 7.135 29.2784 7.135C29.9574 7.135 30.4722 7.3869 30.8226 7.89071C31.1731 8.38905 31.3484 9.12286 31.3484 10.0921C31.3484 10.7329 31.269 11.275 31.1101 11.7186C30.9513 12.1621 30.7186 12.4989 30.4119 12.7289C30.1053 12.9589 29.7274 13.0739 29.2784 13.0739ZM29.2784 12.3675C29.7 12.3675 30.0094 12.184 30.2066 11.8171C30.4092 11.4448 30.5105 10.8698 30.5105 10.0921C30.5105 9.30905 30.4092 8.73952 30.2066 8.38357C30.0094 8.02214 29.7 7.84143 29.2784 7.84143C28.8622 7.84143 28.5528 8.02214 28.3501 8.38357C28.1475 8.73952 28.0462 9.30905 28.0462 10.0921C28.0462 10.8698 28.1475 11.4448 28.3501 11.8171C28.5528 12.184 28.8622 12.3675 29.2784 12.3675Z" fill="white"/>
<path d="M13.1072 11.9108L15.2224 13.1875L14.6611 10.7814L16.5298 9.16245L14.0689 8.95025L13.1072 6.68448L12.1454 8.95025L9.68457 9.16245L11.5499 10.7814L10.992 13.1875L13.1072 11.9108Z" fill="white"/>
</svg>
