<svg width="63" height="125" viewBox="0 0 63 125" fill="none" xmlns="http://www.w3.org/2000/svg">
<circle cx="29.5" cy="2.5" r="2.5" fill="#D0D0D0" fill-opacity="0.3"/>
<circle cx="29.5" cy="17.5" r="2.5" fill="#D0D0D0" fill-opacity="0.3"/>
<circle cx="29.5" cy="32.5" r="2.5" fill="#D0D0D0" fill-opacity="0.3"/>
<circle cx="29.5" cy="47.5" r="2.5" fill="#D0D0D0" fill-opacity="0.3"/>
<circle cx="29.5" cy="62.5" r="2.5" fill="#D0D0D0" fill-opacity="0.3"/>
<circle cx="29.5" cy="77.5" r="2.5" fill="#D0D0D0" fill-opacity="0.3"/>
<circle cx="29.5" cy="92.5" r="2.5" fill="#D0D0D0" fill-opacity="0.3"/>
<circle cx="29.5" cy="107.5" r="2.5" fill="#D0D0D0" fill-opacity="0.3"/>
<circle cx="29.5" cy="122.5" r="2.5" fill="#D0D0D0" fill-opacity="0.3"/>
<circle cx="-0.5" cy="2.5" r="2.5" fill="#D0D0D0" fill-opacity="0.3"/>
<circle cx="44.5" cy="2.5" r="2.5" fill="#D0D0D0" fill-opacity="0.3"/>
<circle cx="-0.5" cy="17.5" r="2.5" fill="#D0D0D0" fill-opacity="0.3"/>
<circle cx="44.5" cy="17.5" r="2.5" fill="#D0D0D0" fill-opacity="0.3"/>
<circle cx="-0.5" cy="32.5" r="2.5" fill="#D0D0D0" fill-opacity="0.3"/>
<circle cx="44.5" cy="32.5" r="2.5" fill="#D0D0D0" fill-opacity="0.3"/>
<circle cx="-0.5" cy="47.5" r="2.5" fill="#D0D0D0" fill-opacity="0.3"/>
<circle cx="44.5" cy="47.5" r="2.5" fill="#D0D0D0" fill-opacity="0.3"/>
<circle cx="-0.5" cy="62.5" r="2.5" fill="#D0D0D0" fill-opacity="0.3"/>
<circle cx="44.5" cy="62.5" r="2.5" fill="#D0D0D0" fill-opacity="0.3"/>
<circle cx="-0.5" cy="77.5" r="2.5" fill="#D0D0D0" fill-opacity="0.3"/>
<circle cx="44.5" cy="77.5" r="2.5" fill="#D0D0D0" fill-opacity="0.3"/>
<circle cx="-0.5" cy="92.5" r="2.5" fill="#D0D0D0" fill-opacity="0.3"/>
<circle cx="44.5" cy="92.5" r="2.5" fill="#D0D0D0" fill-opacity="0.3"/>
<circle cx="-0.5" cy="107.5" r="2.5" fill="#D0D0D0" fill-opacity="0.3"/>
<circle cx="44.5" cy="107.5" r="2.5" fill="#D0D0D0" fill-opacity="0.3"/>
<circle cx="-0.5" cy="122.5" r="2.5" fill="#D0D0D0" fill-opacity="0.3"/>
<circle cx="44.5" cy="122.5" r="2.5" fill="#D0D0D0" fill-opacity="0.3"/>
<circle cx="14.5" cy="2.5" r="2.5" fill="#D0D0D0" fill-opacity="0.3"/>
<circle cx="59.5" cy="2.5" r="2.5" fill="#D0D0D0" fill-opacity="0.3"/>
<circle cx="14.5" cy="17.5" r="2.5" fill="#D0D0D0" fill-opacity="0.3"/>
<circle cx="59.5" cy="17.5" r="2.5" fill="#D0D0D0" fill-opacity="0.3"/>
<circle cx="14.5" cy="32.5" r="2.5" fill="#D0D0D0" fill-opacity="0.3"/>
<circle cx="59.5" cy="32.5" r="2.5" fill="#D0D0D0" fill-opacity="0.3"/>
<circle cx="14.5" cy="47.5" r="2.5" fill="#D0D0D0" fill-opacity="0.3"/>
<circle cx="59.5" cy="47.5" r="2.5" fill="#D0D0D0" fill-opacity="0.3"/>
<circle cx="14.5" cy="62.5" r="2.5" fill="#D0D0D0" fill-opacity="0.3"/>
<circle cx="59.5" cy="62.5" r="2.5" fill="#D0D0D0" fill-opacity="0.3"/>
<circle cx="14.5" cy="77.5" r="2.5" fill="#D0D0D0" fill-opacity="0.3"/>
<circle cx="59.5" cy="77.5" r="2.5" fill="#D0D0D0" fill-opacity="0.3"/>
<circle cx="14.5" cy="92.5" r="2.5" fill="#D0D0D0" fill-opacity="0.3"/>
<circle cx="59.5" cy="92.5" r="2.5" fill="#D0D0D0" fill-opacity="0.3"/>
<circle cx="14.5" cy="107.5" r="2.5" fill="#D0D0D0" fill-opacity="0.3"/>
<circle cx="59.5" cy="107.5" r="2.5" fill="#D0D0D0" fill-opacity="0.3"/>
<circle cx="14.5" cy="122.5" r="2.5" fill="#D0D0D0" fill-opacity="0.3"/>
<circle cx="60.5" cy="122.5" r="2.5" fill="#D0D0D0" fill-opacity="0.3"/>
</svg>
